<?xml version="1.0" encoding="UTF-8"?>
<!DOCTYPE svg PUBLIC "-//W3C//DTD SVG 1.1//EN" "http://www.w3.org/Graphics/SVG/1.1/DTD/svg11.dtd">
<svg version="1.1" xmlns="http://www.w3.org/2000/svg" xmlns:xlink="http://www.w3.org/1999/xlink" x="0" y="0" width="222.333" height="263.129" viewBox="0, 0, 222.333, 263.129">
  <g id="Layer_3" transform="translate(-248, -470)">
    <g>
      <path d="M361.5,471.5 C361.5,471.5 374.5,473.5 374.5,473.5 C374.5,473.5 385.5,478.5 385.5,478.5 C385.5,478.5 390,485.25 389.5,490.5 C389,495.75 382.5,509.5 382.5,509.5 C382.5,509.5 400.5,498.5 400.5,498.5 C400.5,498.5 410.5,500.5 410.5,500.5 C410.5,500.5 415.5,505.25 415.75,509.5 C416,513.75 410.25,515.5 410.25,515.5 C410.25,515.5 391.25,523.5 391.25,523.5 C391.25,523.5 369.5,534.5 369.5,534.5 C369.5,534.5 337.5,595.5 337.5,595.5 L337.5,602.5 C337.5,602.5 335.5,664.75 335.5,664.75 C335.5,664.75 335.5,699.5 335.5,699.5 C335.5,699.5 334.5,725.5 334.5,725.5 C334.5,725.5 333.75,733.75 327.5,732.5 C321.25,731.25 322.5,724.5 322.5,724.5 C322.5,724.5 318.5,703.5 318.5,703.5 C318.5,703.5 317.5,670.5 317.5,670.5 C317.5,670.5 320,627.5 320,627.5 C320,627.5 283.5,685.5 283.5,685.5 C283.5,685.5 266.75,706.5 266.75,706.5 C266.75,706.5 256.75,707.5 256.75,707.5 C256.75,707.5 249.5,698 249.5,698 C249.5,698 254.75,675.25 254.75,675.25 C254.75,675.25 268.75,640.5 268.75,640.5 C268.75,640.5 297.5,588.5 297.5,588.5 C297.5,588.5 306.5,579.5 306.5,579.5 C306.5,579.5 319.5,576.5 319.5,576.5 C319.5,576.5 330.5,579.5 330.5,579.5 C330.5,579.5 345.25,546.75 345.25,546.75 C345.25,546.75 325.5,555.5 325.5,555.5 C325.5,555.5 316.5,557.5 316.5,557.5 C316.5,557.5 302.5,555.25 302.5,555.25 C302.5,555.25 294.5,548.5 294.5,548.5 C294.5,548.5 296.5,540.5 296.5,540.5 C296.5,540.5 305.75,541 305.75,541 C305.75,541 322.5,537.5 322.5,537.5 C322.5,537.5 357.5,522.5 357.5,522.5 C357.5,522.5 369.25,493.25 370.5,490.25 C371.75,487.25 351.5,485.5 349.75,481 C348,476.5 350.75,472.75 350.75,472.75 C350.75,472.75 361.5,471.5 361.5,471.5 z M316.5,591 C316.5,591 312.5,591.75 312.5,591.75 C312.5,591.75 306.75,595.5 306.75,595.5 C306.75,595.5 298.75,606 298.75,606 C298.75,606 290.75,618.75 290.75,618.75 C290.75,618.75 283.5,633.5 283.5,633.5 C283.5,633.5 276.25,649.25 276.25,649.25 C276.25,649.25 268.5,670.25 268.5,670.25 C268.5,670.25 265.25,683 265.25,683 C265.25,683 274.75,669 274.75,669 C274.75,669 283.5,654.75 283.5,654.75 C283.5,654.75 295,636 295,636 C295,636 319.5,593.5 319.5,593.5 C319.5,593.5 318.5,591.5 318.5,591.5 C318.5,591.5 316.5,591 316.5,591 z" fill="#000000"/>
      <path d="M361.5,471.5 C361.5,471.5 374.5,473.5 374.5,473.5 C374.5,473.5 385.5,478.5 385.5,478.5 C385.5,478.5 390,485.25 389.5,490.5 C389,495.75 382.5,509.5 382.5,509.5 C382.5,509.5 400.5,498.5 400.5,498.5 C400.5,498.5 410.5,500.5 410.5,500.5 C410.5,500.5 415.5,505.25 415.75,509.5 C416,513.75 410.25,515.5 410.25,515.5 C410.25,515.5 391.25,523.5 391.25,523.5 C391.25,523.5 369.5,534.5 369.5,534.5 C369.5,534.5 337.5,595.5 337.5,595.5 L337.5,602.5 C337.5,602.5 335.5,664.75 335.5,664.75 C335.5,664.75 335.5,699.5 335.5,699.5 C335.5,699.5 334.5,725.5 334.5,725.5 C334.5,725.5 333.75,733.75 327.5,732.5 C321.25,731.25 322.5,724.5 322.5,724.5 C322.5,724.5 318.5,703.5 318.5,703.5 C318.5,703.5 317.5,670.5 317.5,670.5 C317.5,670.5 320,627.5 320,627.5 C320,627.5 283.5,685.5 283.5,685.5 C283.5,685.5 266.75,706.5 266.75,706.5 C266.75,706.5 256.75,707.5 256.75,707.5 C256.75,707.5 249.5,698 249.5,698 C249.5,698 254.75,675.25 254.75,675.25 C254.75,675.25 268.75,640.5 268.75,640.5 C268.75,640.5 297.5,588.5 297.5,588.5 C297.5,588.5 306.5,579.5 306.5,579.5 C306.5,579.5 319.5,576.5 319.5,576.5 C319.5,576.5 330.5,579.5 330.5,579.5 C330.5,579.5 345.25,546.75 345.25,546.75 C345.25,546.75 325.5,555.5 325.5,555.5 C325.5,555.5 316.5,557.5 316.5,557.5 C316.5,557.5 302.5,555.25 302.5,555.25 C302.5,555.25 294.5,548.5 294.5,548.5 C294.5,548.5 296.5,540.5 296.5,540.5 C296.5,540.5 305.75,541 305.75,541 C305.75,541 322.5,537.5 322.5,537.5 C322.5,537.5 357.5,522.5 357.5,522.5 C357.5,522.5 369.25,493.25 370.5,490.25 C371.75,487.25 351.5,485.5 349.75,481 C348,476.5 350.75,472.75 350.75,472.75 C350.75,472.75 361.5,471.5 361.5,471.5 z M316.5,591 C316.5,591 312.5,591.75 312.5,591.75 C312.5,591.75 306.75,595.5 306.75,595.5 C306.75,595.5 298.75,606 298.75,606 C298.75,606 290.75,618.75 290.75,618.75 C290.75,618.75 283.5,633.5 283.5,633.5 C283.5,633.5 276.25,649.25 276.25,649.25 C276.25,649.25 268.5,670.25 268.5,670.25 C268.5,670.25 265.25,683 265.25,683 C265.25,683 274.75,669 274.75,669 C274.75,669 283.5,654.75 283.5,654.75 C283.5,654.75 295,636 295,636 C295,636 319.5,593.5 319.5,593.5 C319.5,593.5 318.5,591.5 318.5,591.5 C318.5,591.5 316.5,591 316.5,591 z" fill-opacity="0" stroke="#000000" stroke-width="1"/>
    </g>
    <g>
      <path d="M375.833,565.167 C375.833,565.167 385.5,566.5 385.5,566.5 C385.5,566.5 392.833,569.833 392.833,569.833 C392.833,569.833 393.5,585.5 393.5,585.5 C393.5,585.5 393.5,612.5 393.5,612.5 C393.5,612.5 370,618 370,618 C370,618 363.5,618.5 363.5,618.5 C363.5,618.5 357.25,621.75 357.5,623.5 C357.75,625.25 359,628.75 360.5,630.5 C362,632.25 374.25,634 374.25,634 C374.25,634 390,629.75 390,629.75 C390,629.75 383.5,669.5 383.5,669.5 C383.5,669.5 358.5,673.5 358.5,673.5 C358.5,673.5 352,672.75 352,672.75 C352,672.75 345,668.25 342.5,669.5 C340,670.75 338,676.25 338,676.25 C338,676.25 343.75,684.75 343.75,684.75 C343.75,684.75 353.5,690.5 353.5,690.5 C353.5,690.5 362,690.75 362,690.75 C362,690.75 399.5,682.5 399.5,682.5 C399.5,682.5 428.75,678.25 428.75,678.25 C428.75,678.25 452.5,677.5 452.5,677.5 C452.5,677.5 465.25,678.25 465.25,678.25 C465.25,678.25 469.833,668.5 469.833,668.5 C469.833,668.5 463.5,661.5 463.5,661.5 C463.5,661.5 456.5,658.5 456.5,658.5 C456.5,658.5 402.25,665.5 402.25,665.5 C402.25,665.5 406.25,643.75 406.25,643.75 C406.25,643.75 407.25,628.5 408.5,625.5 C409.75,622.5 433,621 432.75,623 C432.5,625 438.5,619.25 438.5,619.25 C438.5,619.25 439.5,616 438.5,613.5 C437.5,611 430.75,606.75 428.5,605.5 C426.25,604.25 422.5,603.5 422.5,603.5 C422.5,603.5 415.5,604.5 415.5,604.5 C415.5,604.5 409.167,607.167 409.167,607.167 C409.167,607.167 411.833,581.5 411.833,581.5 C411.833,581.5 410.5,566.5 410.5,566.5 C410.5,566.5 403.5,558.5 403.5,558.5 C403.5,558.5 391.5,552.5 391.5,552.5 C391.5,552.5 375.167,555.167 375.167,555.167 C375.167,555.167 372.833,560.5 372.833,560.5 C372.833,560.5 375.833,564.167 375.833,565.167 z" fill="#000000"/>
      <path d="M375.833,565.167 C375.833,565.167 385.5,566.5 385.5,566.5 C385.5,566.5 392.833,569.833 392.833,569.833 C392.833,569.833 393.5,585.5 393.5,585.5 C393.5,585.5 393.5,612.5 393.5,612.5 C393.5,612.5 370,618 370,618 C370,618 363.5,618.5 363.5,618.5 C363.5,618.5 357.25,621.75 357.5,623.5 C357.75,625.25 359,628.75 360.5,630.5 C362,632.25 374.25,634 374.25,634 C374.25,634 390,629.75 390,629.75 C390,629.75 383.5,669.5 383.5,669.5 C383.5,669.5 358.5,673.5 358.5,673.5 C358.5,673.5 352,672.75 352,672.75 C352,672.75 345,668.25 342.5,669.5 C340,670.75 338,676.25 338,676.25 C338,676.25 343.75,684.75 343.75,684.75 C343.75,684.75 353.5,690.5 353.5,690.5 C353.5,690.5 362,690.75 362,690.75 C362,690.75 399.5,682.5 399.5,682.5 C399.5,682.5 428.75,678.25 428.75,678.25 C428.75,678.25 452.5,677.5 452.5,677.5 C452.5,677.5 465.25,678.25 465.25,678.25 C465.25,678.25 469.833,668.5 469.833,668.5 C469.833,668.5 463.5,661.5 463.5,661.5 C463.5,661.5 456.5,658.5 456.5,658.5 C456.5,658.5 402.25,665.5 402.25,665.5 C402.25,665.5 406.25,643.75 406.25,643.75 C406.25,643.75 407.25,628.5 408.5,625.5 C409.75,622.5 433,621 432.75,623 C432.5,625 438.5,619.25 438.5,619.25 C438.5,619.25 439.5,616 438.5,613.5 C437.5,611 430.75,606.75 428.5,605.5 C426.25,604.25 422.5,603.5 422.5,603.5 C422.5,603.5 415.5,604.5 415.5,604.5 C415.5,604.5 409.167,607.167 409.167,607.167 C409.167,607.167 411.833,581.5 411.833,581.5 C411.833,581.5 410.5,566.5 410.5,566.5 C410.5,566.5 403.5,558.5 403.5,558.5 C403.5,558.5 391.5,552.5 391.5,552.5 C391.5,552.5 375.167,555.167 375.167,555.167 C375.167,555.167 372.833,560.5 372.833,560.5 C372.833,560.5 375.833,564.167 375.833,565.167 z" fill-opacity="0" stroke="#000000" stroke-width="1"/>
    </g>
  </g>
</svg>
